<?xml version="1.0" encoding="UTF-8"?>
<svg version="1.1" xmlns="http://www.w3.org/2000/svg" width="297" height="68">
<path d="M0 0 C97.35 0 194.7 0 295 0 C295 21.78 295 43.56 295 66 C197.65 66 100.3 66 0 66 C0 44.22 0 22.44 0 0 Z " fill="#FCFCFD" transform="translate(1,1)"/>
<path d="M0 0 C0.804375 0.495 1.60875 0.99 2.4375 1.5 C2.4375 2.82 2.4375 4.14 2.4375 5.5 C0.6875 6.625 0.6875 6.625 -1.5625 7.5 C-2.160625 7.190625 -2.75875 6.88125 -3.375 6.5625 C-6.64751534 4.97299255 -9.09255313 5.7289007 -12.5625 6.5 C-14.83466848 8.33737827 -14.83466848 8.33737827 -14.7578125 11.1015625 C-14.73460937 12.09929688 -14.71140625 13.09703125 -14.6875 14.125 C-14.66042969 15.62933594 -14.66042969 15.62933594 -14.6328125 17.1640625 C-14.60960937 17.93492188 -14.58640625 18.70578125 -14.5625 19.5 C-11.68038698 20.46070434 -9.86399956 20.60581883 -6.875 20.5625 C-6.06675781 20.55347656 -5.25851563 20.54445313 -4.42578125 20.53515625 C-3.81089844 20.52355469 -3.19601563 20.51195313 -2.5625 20.5 C-2.2325 19.18 -1.9025 17.86 -1.5625 16.5 C-3.8725 16.5 -6.1825 16.5 -8.5625 16.5 C-8.5625 14.85 -8.5625 13.2 -8.5625 11.5 C-3.6125 11.5 1.3375 11.5 6.4375 11.5 C6.03530148 17.33187853 5.30163931 20.86303283 1.4375 25.5 C-3.20617021 28.4413269 -8.25603285 28.10843382 -13.5625 27.5 C-18.11573785 25.43034643 -20.64174442 22.7409007 -22.8671875 18.35546875 C-24.26918666 14.61417887 -24.23889342 11.40110577 -22.90234375 7.64453125 C-20.93973541 3.65984159 -18.53678163 1.1387518 -14.5546875 -0.84375 C-9.39278665 -2.54414087 -4.94593843 -2.08250039 0 0 Z " fill="#1E78FF" transform="translate(201.5625,16.5)"/>
<path d="M0 0 C1.98 0 3.96 0 6 0 C6 9.57 6 19.14 6 29 C3.463125 29.12375 0.92625 29.2475 -1.6875 29.375 C-2.87218872 29.45693604 -2.87218872 29.45693604 -4.08081055 29.54052734 C-7.0708348 29.61084527 -9.17228752 29.62481848 -11.61547852 27.78051758 C-14.01491525 25.06355238 -15.69064839 22.60857451 -15.5625 18.9375 C-14.94840565 14.63883954 -14.0775461 12.98703004 -11 10 C-8.01405576 8.50702788 -5.29146376 8.88244772 -2 9 C-1.34 9.33 -0.68 9.66 0 10 C0 6.7 0 3.4 0 0 Z " fill="#1A76FF" transform="translate(254,15)"/>
<path d="M0 0 C2.43375 0.020625 4.8675 0.04125 7.375 0.0625 C7.375 6.6625 7.375 13.2625 7.375 20.0625 C4.838125 20.18625 2.30125 20.31 -0.3125 20.4375 C-1.49718872 20.51943604 -1.49718872 20.51943604 -2.70581055 20.60302734 C-5.6958348 20.67334527 -7.79728752 20.68731848 -10.24047852 18.84301758 C-12.63991525 16.12605238 -14.31564839 13.67107451 -14.1875 10 C-13.57340565 5.70133954 -12.7025461 4.04953004 -9.625 1.0625 C-6.56118406 -0.46940797 -3.35534134 -0.03993613 0 0 Z " fill="#1A1D2A" transform="translate(117.625,23.9375)"/>
<path d="M0 0 C3 2.4375 3 2.4375 5 5 C5.33 5.33 5.66 5.66 6 6 C6 7.98 6 9.96 6 12 C1.38 12 -3.24 12 -8 12 C-7.67 12.66 -7.34 13.32 -7 14 C-4.03 14 -1.06 14 2 14 C2.66 15.32 3.32 16.64 4 18 C-0.23967017 20.82644678 -4.02086859 20.65911947 -9 20 C-12.55680172 17.89495409 -13.69468936 16.91593192 -15 13 C-15.38887761 8.80012182 -15.45908323 6.70392762 -13.125 3.125 C-9.28552361 -0.71447639 -5.23053381 -0.84013755 0 0 Z " fill="#217AFF" transform="translate(277,24)"/>
<path d="M0 0 C8.25 0 16.5 0 25 0 C25 1.98 25 3.96 25 6 C22.03 6 19.06 6 16 6 C16 13.59 16 21.18 16 29 C13.69 29 11.38 29 9 29 C9 21.41 9 13.82 9 6 C6.03 6 3.06 6 0 6 C0 4.02 0 2.04 0 0 Z " fill="#221E2E" transform="translate(67,15)"/>
<path d="M0 0 C2.8100346 1.79363911 4.50940468 3.01880935 6 6 C6 7.98 6 9.96 6 12 C1.38 12 -3.24 12 -8 12 C-7.67 12.66 -7.34 13.32 -7 14 C-4.03 14 -1.06 14 2 14 C2.66 15.32 3.32 16.64 4 18 C0.276413 20.48239134 -2.08883855 20.59530761 -6.48046875 20.51171875 C-10.22894342 19.75040064 -11.83251212 17.98852405 -14.00390625 14.9375 C-15.48678555 12.05315438 -15.62057186 10.17181174 -15 7 C-13.75436665 4.25960663 -12.68864555 2.5356132 -10.3125 0.6875 C-6.84767407 -0.34258338 -3.54883321 -0.5914722 0 0 Z " fill="#1C212F" transform="translate(162,24)"/>
<path d="M0 0 C2.31 0 4.62 0 7 0 C7.33 4.29 7.66 8.58 8 13 C9.32 13.33 10.64 13.66 12 14 C12 9.38 12 4.76 12 0 C14.31 0 16.62 0 19 0 C19.13572155 2.39774745 19.23436868 4.78775245 19.3125 7.1875 C19.35439453 7.86103516 19.39628906 8.53457031 19.43945312 9.22851562 C19.5341757 13.11214103 19.13442447 14.82311335 16.76171875 17.9453125 C13.2452836 20.56150046 11.41144045 20.82471526 7.16015625 20.51953125 C4.33456984 19.83995983 2.48746512 18.65097818 0.796875 16.265625 C-1.0190351 11.10274334 -0.33192916 5.38462865 0 0 Z " fill="#2777FF" transform="translate(209,24)"/>
<path d="M0 0 C2.64 0 5.28 0 8 0 C8.99 2.97 9.98 5.94 11 9 C12.32 6.03 13.64 3.06 15 0 C17.31 0 19.62 0 22 0 C19.83836487 6.93998648 17.1063786 13.43117569 14 20 C12.02 20 10.04 20 8 20 C6.8529341 17.22967112 5.70729921 14.4587654 4.5625 11.6875 C4.23701172 10.90181641 3.91152344 10.11613281 3.57617188 9.30664062 C3.26357422 8.54931641 2.95097656 7.79199219 2.62890625 7.01171875 C2.34088135 6.31522217 2.05285645 5.61872559 1.75610352 4.90112305 C1.11476643 3.28856513 0.5487856 1.64635679 0 0 Z " fill="#222635" transform="translate(126,24)"/>
<path d="M0 0 C0.99 0 1.98 0 3 0 C4.82421875 2.3359375 4.82421875 2.3359375 6.6875 5.375 C7.31011719 6.37273438 7.93273438 7.37046875 8.57421875 8.3984375 C10 11 10 11 10 13 C13.96 13 17.92 13 22 13 C22 13.99 22 14.98 22 16 C21.21496094 15.94457031 20.42992188 15.88914062 19.62109375 15.83203125 C16.1253481 15.81058496 13.35422637 15.97696096 10 17 C7.56631562 19.72099434 6.03343935 22.37086542 4.40234375 25.62890625 C3.93957031 26.41136719 3.47679687 27.19382812 3 28 C2.01 28 1.02 28 0 28 C0.99 24.04 1.98 20.08 3 16 C-2.55053286 16.74359673 -2.55053286 16.74359673 -8 18 C-8 15.36 -8 12.72 -8 10 C-7.484375 10.309375 -6.96875 10.61875 -6.4375 10.9375 C-3.33334577 12.29059287 -0.34884993 12.61359424 3 13 C2.7834375 12.31292969 2.566875 11.62585937 2.34375 10.91796875 C2.0653125 10.01691406 1.786875 9.11585937 1.5 8.1875 C1.2215625 7.29417969 0.943125 6.40085937 0.65625 5.48046875 C0 3 0 3 0 0 Z " fill="#0E0D14" transform="translate(27,17)"/>
<path d="M0 0 C4.95 0 9.9 0 15 0 C14 4 14 4 12 6 C10.68 6.33 9.36 6.66 8 7 C7.67 11.29 7.34 15.58 7 20 C4.69 20 2.38 20 0 20 C0 13.4 0 6.8 0 0 Z " fill="#152537" transform="translate(90,24)"/>
<path d="M0 0 C1.98 0 3.96 0 6 0 C6 9.57 6 19.14 6 29 C4.02 29 2.04 29 0 29 C0 19.43 0 9.86 0 0 Z " fill="#111827" transform="translate(170,15)"/>
<path d="M0 0 C2.64 0 5.28 0 8 0 C8 6.6 8 13.2 8 20 C5.36 20 2.72 20 0 20 C0 13.4 0 6.8 0 0 Z " fill="#3784FF" transform="translate(230,24)"/>
<path d="M0 0 C2.625 0.375 2.625 0.375 5 1 C5.625 3.375 5.625 3.375 6 6 C4 8 4 8 1.4375 8.1875 C-1 8 -1 8 -2 7 C-2.1875 4.5625 -2.1875 4.5625 -2 2 C-1.34 1.34 -0.68 0.68 0 0 Z " fill="#EEF0EB" transform="translate(113,30)"/>
<path d="M0 0 C2.625 0.375 2.625 0.375 5 1 C5.625 3.375 5.625 3.375 6 6 C5.34 6.66 4.68 7.32 4 8 C1.375 7.625 1.375 7.625 -1 7 C-1.625 4.625 -1.625 4.625 -2 2 C-1.34 1.34 -0.68 0.68 0 0 Z " fill="#F6F5FF" transform="translate(248,30)"/>
<path d="M0 0 C2.625 0.9375 2.625 0.9375 5 2 C4.67 3.65 4.34 5.3 4 7 C2.34385343 7.38218767 0.67542976 7.71395102 -1 8 C-2 7 -2 7 -2.0625 3.9375 C-2.041875 2.968125 -2.02125 1.99875 -2 1 C-1.34 0.67 -0.68 0.34 0 0 Z " fill="#3183FF" transform="translate(233,14)"/>
<path d="M0 0 C4.62 0 9.24 0 14 0 C13.01 0.33 12.02 0.66 11 1 C10.67 1.66 10.34 2.32 10 3 C7.03 3 4.06 3 1 3 C0.67 2.01 0.34 1.02 0 0 Z " fill="#D6DDE1" transform="translate(154,36)"/>
<path d="M0 0 C4.29 0 8.58 0 13 0 C8.28954732 2.35522634 6.22786799 3.1136493 1 3 C0.67 2.01 0.34 1.02 0 0 Z " fill="#DDE5FF" transform="translate(269,36)"/>
<path d="M0 0 C2.375 -0.1875 2.375 -0.1875 5 0 C5.66 0.99 6.32 1.98 7 3 C4.36 3 1.72 3 -1 3 C-0.67 2.01 -0.34 1.02 0 0 Z " fill="#E5ECEC" transform="translate(155,29)"/>
<path d="M0 0 C1.65 0 3.3 0 5 0 C5.33 0.99 5.66 1.98 6 3 C3.69 3 1.38 3 -1 3 C-0.67 2.01 -0.34 1.02 0 0 Z " fill="#F1F4FF" transform="translate(270,29)"/>
<path d="M0 0 C1.41687119 4.25061356 0.19320039 6.71851625 -1 11 C-1.33 11 -1.66 11 -2 11 C-2 9.35 -2 7.7 -2 6 C-2.66 5.67 -3.32 5.34 -4 5 C-2.68 3.35 -1.36 1.7 0 0 Z " fill="#D2DDD1" transform="translate(105,25)"/>
</svg>
